#!OML:ASF E:\Steps\Project 1\Capture day 1\Session 2\Subject.ASF
:FULLY-SPECIFIED
:DEGREES
85
root 16.6908 16.3525 21.5879 -154.859 -0.93743 177.713
lowerback -31.0138 -1.66239 -8.38008
upperback -1.64004 -0.0155949 -0.198146
thorax 14.3239 -0.86326 4.22503
lowerneck -6.1346 -2.91299 -0.941247
upperneck 11.489 -4.58875 3.8158
head 4.55923 -2.19641 1.0518
rclavicle 1.12313e-014 -5.1684e-015
rhumerus -35.9029 -20.6296 -77.2671
rradius 27.8707
rwrist 0.100312
rhand -11.286 -433.83
rfingers 7.12502
rthumb -165.255 -76.7144
lclavicle 1.12313e-014 -5.1684e-015
lhumerus -28.7716 9.94611 79.9589
lradius 14.6221
lwrist -11.0308
lhand -22.4933 -11.8049
lfingers 7.12502
lthumb 3.93237 18.1385
rfemur -23.5948 5.59014 19.5721
rtibia 7.58518
rfoot -17.5447 -0.672971
rtoes -8.45409
lfemur -25.0204 -9.70051 -21.3226
ltibia 9.77438
lfoot -7.53087 0.999022
ltoes -50.6607
86
root 16.6911 16.3552 21.5865 -154.851 -0.890591 177.564
lowerback -31.0787 -1.65137 -8.50571
upperback -1.61975 0.057554 -0.264158
thorax 14.3632 -0.840096 4.24826
lowerneck -6.12149 -2.94197 -0.964721
upperneck 11.499 -4.63491 3.87085
head 4.5631 -2.21783 1.0698
rclavicle 5.91384e-015 -1.90833e-014
rhumerus -35.8436 -20.7192 -77.2416
rradius 27.9166
rwrist 0.530995
rhand -11.1734 -433.601
rfingers 7.12502
rthumb -165.147 -76.9515
lclavicle 5.91384e-015 -1.90833e-014
lhumerus -28.6569 9.54547 80.1515
lradius 14.6949
lwrist -10.6977
lhand -22.4872 -11.9066
lfingers 7.12502
lthumb 3.93832 18.0367
rfemur -23.5952 5.42633 19.3994
rtibia 7.53974
rfoot -17.4843 -0.600897
rtoes -8.99342
lfemur -25.003 -9.85663 -21.4813
ltibia 9.72418
lfoot -7.49958 1.15363
ltoes -51.1008
87
root 16.6947 16.3541 21.5879 -154.835 -0.8922 177.6
lowerback -31.0945 -1.61947 -8.4827
upperback -1.61923 0.0927611 -0.264497
thorax 14.3667 -0.823198 4.24968
lowerneck -6.11496 -2.99047 -0.93901
upperneck 11.5306 -4.70244 3.83733
head 4.57204 -2.25218 1.05112
rclavicle 2.33572e-015 -6.75868e-015
rhumerus -35.8466 -20.7863 -77.1927
rradius 28.0567
rwrist 0.906833
rhand -11.0859 -433.29
rfingers 7.12502
rthumb -165.062 -77.2682
lclavicle 2.33572e-015 -6.75868e-015
lhumerus -28.5697 9.09524 80.379
lradius 14.8112
lwrist -10.2908
lhand -22.6673 -12.0899
lfingers 7.12502
lthumb 3.76441 17.8566
rfemur -23.6047 5.37639 19.4902
rtibia 7.5147
rfoot -17.5061 -0.56852
rtoes -9.7233
lfemur -24.9831 -9.89123 -21.3944
ltibia 9.63204
lfoot -7.46721 1.17766
ltoes -50.9862
88
root 16.6927 16.355 21.5873 -154.881 -0.998205 177.615
lowerback -31.0422 -1.5951 -8.38057
upperback -1.60361 0.0939734 -0.28867
thorax 14.364 -0.813439 4.17037
lowerneck -6.10837 -3.03235 -0.92783
upperneck 11.538 -4.76947 3.88742
head 4.5759 -2.28277 1.0606
rclavicle -4.96962e-017 -5.1684e-015
rhumerus -35.8588 -20.8487 -77.1753
rradius 28.239
rwrist 1.13716
rhand -11.0398 -432.994
rfingers 7.12502
rthumb -165.018 -77.5679
lclavicle -4.96962e-017 -5.1684e-015
lhumerus -28.4747 8.88708 80.5013
lradius 14.9433
lwrist -10.1836
lhand -22.7845 -12.127
lfingers 7.12502
lthumb 3.65119 17.8214
rfemur -23.5135 5.19475 19.5466
rtibia 7.49291
rfoot -17.6123 -0.397722
rtoes -9.61514
lfemur -24.8811 -10.2036 -21.3092
ltibia 9.53663
lfoot -7.43879 1.36887
ltoes -50.493
89
root 16.7007 16.3535 21.5905 -154.733 -1.04488 177.514
lowerback -31.1417 -1.65172 -8.55396
upperback -1.63118 0.080768 -0.307543
thorax 14.3726 -0.833908 4.23436
lowerneck -6.12979 -3.01211 -0.934815
upperneck 11.5196 -4.75085 3.97079
head 4.57561 -2.26919 1.08816
rclavicle -4.96962e-017 1.70955e-014
rhumerus -35.8569 -20.8098 -77.2077
rradius 28.4264
rwrist 0.941704
rhand -11.0969 -432.593
rfingers 7.12502
rthumb -165.073 -77.9645
lclavicle -4.96962e-017 1.70955e-014
lhumerus -28.3883 8.75467 80.5425
lradius 15.2188
lwrist -10.6599
lhand -22.6273 -11.707
lfingers 7.12502
lthumb 3.80297 18.2388
rfemur -23.6485 5.27496 19.4455
rtibia 7.44147
rfoot -17.5652 -0.47322
rtoes -9.17246
lfemur -25.103 -10.0972 -21.3812
ltibia 9.62056
lfoot -7.42047 1.18569
ltoes -50.4334
